# xmcd
#
# Track frame offsets: 
#        150
#        4417
#        24226
#        40204
#        57958
#        71780
#        108184
#        133410
#        148572
#        164040
#        185310
#        204162
#        218002
#        236172
#        255136
#
# Disc length: 3493 seconds
#
# Revision: 0
# Processed by: cddbd v1.5.2PL0 Copyright (c) Steve Scherf et al.
# Submitted via: ExactAudioCopyFreeDBPlugin 1.0
#
DISCID=d30da30f
DTITLE=Hot'N'Nasty - Dirt
DYEAR=2018
DGENRE=Blues
TTITLE0=Daylight
TTITLE1=Shake The Devil's Hand
TTITLE2=Back On Track
TTITLE3=Somewhere, Somehow, Someday
TTITLE4=Take A Ride
TTITLE5=It's Only Money
TTITLE6=Almost Like You're Here
TTITLE7=Real Thing
TTITLE8=Cruisin'
TTITLE9=So Much Better Than This
TTITLE10=She Talks
TTITLE11=Drifting
TTITLE12=Go To The Woman
TTITLE13=Land Of A Thousand Lies
TTITLE14=Daylight (Reprise)
EXTD=
EXTT0=
EXTT1=
EXTT2=
EXTT3=
EXTT4=
EXTT5=
EXTT6=
EXTT7=
EXTT8=
EXTT9=
EXTT10=
EXTT11=
EXTT12=
EXTT13=
EXTT14=
PLAYORDER=
